Coordinates
version=1
nRows=26
nColumns=22
inDegrees=yes

Units are S.I. units (second, meters, Newtons, ...)
If the header above contains a line with 'inDegrees', this indicates whether rotational values are in degrees (yes) or radians (no).

endheader
time	pelvis_tilt	pelvis_list	pelvis_rotation	pelvis_tx	pelvis_ty	pelvis_tz	hip_flexion_r	hip_adduction_r	hip_rotation_r	knee_angle_r	ankle_angle_r	subtalar_angle_r	hip_flexion_l	hip_adduction_l	hip_rotation_l	knee_angle_l	ankle_angle_l	subtalar_angle_l	lumbar_extension	lumbar_bending	lumbar_rotation
      3.27000000	     -4.22971549	      0.64637973	    -37.04210329	      1.16993934	      0.88043904	      1.08063684	     13.39107769	      1.15488405	      0.47560732	    -16.25907745	      9.90157775	     -0.40451899	     12.96819454	     -9.42791414	     -0.41179290	    -34.02761134	     19.82920455	     11.38957081	      0.05963299	      2.19871432	     15.52633815
      3.28000000	     -4.46698479	      0.78007976	    -37.33206359	      1.17171176	      0.88107163	      1.08278957	     12.94045349	      1.26697103	      0.78128436	    -15.20430026	      9.61202951	     -0.33583879	     13.07863584	     -9.65031188	     -0.75351416	    -32.52314811	     19.95122177	     10.66417582	      0.34370636	      2.33344945	     15.38236158
      3.29000000	     -4.71891752	      0.93021385	    -37.58971855	      1.17345598	      0.88146128	      1.08472567	     12.57540431	      1.35470970	      1.03395433	    -14.24809282	      9.35785133	     -0.27189623	     13.20062437	     -9.84680076	     -1.05654040	    -30.94237931	     19.95925476	     10.01267543	      0.64582142	      2.46945812	     15.20806951
      3.30000000	     -4.98991554	      1.07531338	    -37.82424627	      1.17512461	      0.88159109	      1.08649177	     12.30148796	      1.45060384	      1.24621776	    -13.41840941	      9.17161460	     -0.21873952	     13.33961891	    -10.04556098	     -1.32183061	    -29.35535642	     19.86768635	      9.57471472	      0.95221230	      2.62242510	     15.02655750
      3.31000000	     -5.26905530	      1.21236286	    -38.03614728	      1.17671967	      0.88147181	      1.08807784	     12.11818020	      1.55024996	      1.40528635	    -12.73616460	      9.05675375	     -0.18345447	     13.49407555	    -10.23802377	     -1.54331697	    -27.81279617	     19.67491058	      9.34518235	      1.24962141	      2.78743840	     14.85048196
      3.32000000	     -5.55057276	      1.33590153	    -38.21405766	      1.17820721	      0.88110460	      1.08945212	     12.03982909	      1.65794473	      1.55444679	    -12.24578735	      9.06824018	     -0.16795349	     13.67045576	    -10.41446069	     -1.65528065	    -26.36472756	     19.38192577	      9.27906468	      1.52342223	      2.96573571	     14.63889865
      3.33000000	     -5.79433502	      1.40970633	    -38.40643154	      1.17960456	      0.88060124	      1.09071964	     11.99396515	      1.78560356	      1.68337339	    -11.91620274	      9.13751565	     -0.16718022	     13.78437730	    -10.59582877	     -1.74837546	    -25.02789279	     18.99885927	      9.28817210	      1.71680859	      3.15676625	     14.49277979
      3.34000000	     -6.02785096	      1.44720244	    -38.58582767	      1.18087880	      0.87991564	      1.09178381	     12.03954290	      1.93529365	      1.80869048	    -11.79691376	      9.29944740	     -0.17745269	     13.90300172	    -10.77510936	     -1.75434299	    -23.86729673	     18.49294269	      9.37296967	      1.85486999	      3.37376046	     14.32478506
      3.35000000	     -6.22964729	      1.46972972	    -38.78847824	      1.18206040	      0.87908379	      1.09271976	     12.16174506	      2.07889661	      1.93131407	    -11.86746271	      9.55477538	     -0.22305410	     13.98521495	    -10.92811193	     -1.72276746	    -22.86665084	     17.90184124	      9.68397391	      1.94323581	      3.57529949	     14.22601097
      3.36000000	     -6.41106479	      1.41446571	    -38.98750890	      1.18313587	      0.87817591	      1.09348049	     12.31501253	      2.27198729	      2.04649847	    -12.10448985	      9.84367633	     -0.24413158	     14.04581512	    -11.11487754	     -1.65449212	    -22.10431479	     17.21050547	      9.85808575	      1.93800069	      3.82767424	     14.09445190
      3.37000000	     -6.56281492	      1.33120394	    -39.21428961	      1.18416463	      0.87718746	      1.09410755	     12.51747132	      2.46722154	      2.16761583	    -12.49868186	     10.21332209	     -0.26947316	     14.05784071	    -11.28711879	     -1.56826265	    -21.52382925	     16.52948739	     10.07880224	      1.88052451	      4.08026825	     14.02372606
      3.38000000	     -6.68736637	      1.19120791	    -39.45530593	      1.18514854	      0.87618698	      1.09462508	     12.71905931	      2.68978605	      2.29625860	    -12.99072291	     10.59972837	     -0.28396665	     14.02122750	    -11.47869032	     -1.49204012	    -21.14946444	     15.91243511	     10.21126862	      1.75219011	      4.35448679	     13.96931992
      3.39000000	     -6.78275119	      1.02662883	    -39.71236055	      1.18609146	      0.87518603	      1.09503822	     12.93261734	      2.91388009	      2.45676559	    -13.57018954	     11.00333883	     -0.29656950	     13.94635510	    -11.66245930	     -1.43444973	    -20.95796287	     15.43045640	     10.26735444	      1.57820656	      4.61737545	     13.94207589
      3.40000000	     -6.84530544	      0.81686069	    -39.96247328	      1.18707855	      0.87425261	      1.09537737	     13.10984461	      3.14573646	      2.58722267	    -14.19005147	     11.40713654	     -0.30369133	     13.81874570	    -11.85930028	     -1.45414704	    -20.92928887	     15.14951665	     10.18874545	      1.35352475	      4.88457559	     13.89527200
      3.41000000	     -6.87963504	      0.60419530	    -40.21097625	      1.18808210	      0.87338387	      1.09565561	     13.27802041	      3.35874281	      2.72644525	    -14.83914185	     11.81299970	     -0.31929971	     13.65854328	    -12.03808996	     -1.53592348	    -21.01301900	     15.09197538	     10.02530301	      1.11372641	      5.11838752	     13.85020900
      3.42000000	     -6.88432245	      0.42293117	    -40.46442142	      1.18908279	      0.87259577	      1.09590245	     13.45020248	      3.52993219	      2.90642618	    -15.50004535	     12.19926954	     -0.37674575	     13.47785895	    -12.17141966	     -1.67038157	    -21.16151394	     15.20098640	      9.64961725	      0.88561517	      5.28453723	     13.83621004
      3.43000000	     -6.85970141	      0.24370387	    -40.66819108	      1.19017737	      0.87194853	      1.09609394	     13.57660042	      3.66606158	      3.02638207	    -16.12631919	     12.56624590	     -0.44856113	     13.27129982	    -12.27910333	     -1.84152101	    -21.33315914	     15.44390382	      9.36833177	      0.65738432	      5.41428006	     13.76116187
      3.44000000	     -6.82664401	      0.07641208	    -40.81668262	      1.19134482	      0.87144310	      1.09623216	     13.68037524	      3.77236120	      3.06738743	    -16.71201305	     12.88347013	     -0.49001982	     13.06467745	    -12.36653368	     -1.99615564	    -21.49349925	     15.71951102	      9.26919496	      0.45477806	      5.51458509	     13.64548535
      3.45000000	     -6.74461912	      0.03065410	    -40.98592565	      1.19250887	      0.87104395	      1.09641285	     13.81217008	      3.75902204	      3.20161731	    -17.27102907	     13.20025815	     -0.68677495	     12.85474536	    -12.33187308	     -2.25598072	    -21.58766747	     15.97973847	      8.95478644	      0.32211306	      5.45744153	     13.57145844
      3.46000000	     -6.66190265	      0.00937205	    -41.08619398	      1.19377988	      0.87078208	      1.09651081	     13.90677295	      3.70431902	      3.27717894	    -17.73559194	     13.48627535	     -0.77888705	     12.67251850	    -12.26556494	     -2.46216947	    -21.65247571	     16.20392452	      8.91285257	      0.23472262	      5.37550727	     13.45484491
      3.47000000	     -6.57692616	      0.01400317	    -41.14677392	      1.19509961	      0.87064683	      1.09656283	     13.97840539	      3.61451963	      3.31121908	    -18.12855579	     13.68209179	     -0.85476488	     12.51185531	    -12.17072069	     -2.62587812	    -21.69287055	     16.39873094	      8.91237228	      0.18513469	      5.26189654	     13.33905045
      3.48000000	     -6.47786835	      0.11083256	    -41.19647754	      1.19649458	      0.87060251	      1.09661899	     14.05261543	      3.43670090	      3.39411332	    -18.43780619	     13.89516917	     -0.97983766	     12.34791868	    -11.98131730	     -2.78452274	    -21.61849229	     16.44969941	      8.94728942	      0.22255675	      5.05644799	     13.24370374
      3.49000000	     -6.40176201	      0.19833487	    -41.20420142	      1.19796942	      0.87065620	      1.09662102	     14.07358889	      3.26440725	      3.43942081	    -18.63075828	     14.02332623	     -1.06951862	     12.20081312	    -11.80396408	     -2.88881757	    -21.52489193	     16.50327253	      9.01405358	      0.29431261	      4.87791768	     13.14342570
      3.50000000	     -6.34963051	      0.29051148	    -41.19371220	      1.19949943	      0.87078864	      1.09660009	     14.05614410	      3.09355506	      3.47337235	    -18.71445642	     14.09971246	     -1.12196076	     12.05275458	    -11.62959652	     -2.95817603	    -21.37706745	     16.52273031	      9.09560348	      0.41006563	      4.71459328	     13.05631334
      3.51000000	     -6.32663244	      0.37507384	    -41.17560628	      1.20108118	      0.87098639	      1.09653337	     14.00229767	      2.93673357	      3.49672933	    -18.69742765	     14.13153275	     -1.14259452	     11.89549585	    -11.47231212	     -3.01516785	    -21.17352459	     16.51438343	      9.18054579	      0.55929532	      4.58923565	     12.99863463
      3.52000000	     -6.35645255	      0.45029573	    -41.14973930	      1.20268372	      0.87119456	      1.09639111	     13.93202232	      2.81330392	      3.51821482	    -18.57595666	     14.10707334	     -1.13765545	     11.76219318	    -11.34896317	     -3.04536728	    -20.93972962	     16.52805282	      9.22405861	      0.75460470	      4.52206814	     12.97762644
